<?xml version="1.0" encoding="UTF-8" standalone="no"?>
<!-- Created with Inkscape (http://www.inkscape.org/) -->

<svg
   width="20.71735mm"
   height="20.043938mm"
   viewBox="0 0 20.71735 20.043938"
   version="1.1"
   id="svg5"
   xml:space="preserve"
   inkscape:export-filename="pfc-logo.png"
   inkscape:export-xdpi="96"
   inkscape:export-ydpi="96"
   inkscape:version="1.2.2 (b0a8486541, 2022-12-01)"
   sodipodi:docname="pfc-logo.svg"
   xmlns:inkscape="http://www.inkscape.org/namespaces/inkscape"
   xmlns:sodipodi="http://sodipodi.sourceforge.net/DTD/sodipodi-0.dtd"
   xmlns="http://www.w3.org/2000/svg"
   xmlns:svg="http://www.w3.org/2000/svg"><sodipodi:namedview
     id="namedview7"
     pagecolor="#ffffff"
     bordercolor="#000000"
     borderopacity="0.25"
     inkscape:showpageshadow="2"
     inkscape:pageopacity="0.0"
     inkscape:pagecheckerboard="0"
     inkscape:deskcolor="#d1d1d1"
     inkscape:document-units="mm"
     showgrid="false"
     inkscape:zoom="0.42835894"
     inkscape:cx="295.31309"
     inkscape:cy="-336.16668"
     inkscape:window-width="1920"
     inkscape:window-height="1028"
     inkscape:window-x="0"
     inkscape:window-y="24"
     inkscape:window-maximized="1"
     inkscape:current-layer="layer1" /><defs
     id="defs2"><clipPath
       clipPathUnits="userSpaceOnUse"
       id="clipPath294"><path
         id="path296"
         style="stroke-width:0.264583"
         d="m -79.499793,155.52013 h 25.081015 v 28.35245 h -25.081015 z" /></clipPath></defs><g
     inkscape:label="Layer 1"
     inkscape:groupmode="layer"
     id="layer1"
     transform="translate(-10.626994,-188.82018)"><path
       id="path344"
       style="fill:#ff0000;stroke-width:0.352778"
       d="m 14.386783,208.60794 c -0.195751,-0.32152 -0.375625,-3.05604 -0.293196,-4.4573 l 0.05987,-1.01771 0.705556,0.89697 c 0.388055,0.49333 0.705555,1.38786 0.705555,1.98785 0,1.32446 0.552758,1.39857 2.695338,0.36136 1.396203,-0.67589 3.162517,-2.33427 3.911322,-3.67231 0.230243,-0.41142 0.528305,-0.48494 1.103429,-0.27219 l 0.787974,0.29149 -1.049913,1.44936 c -1.251796,1.72805 -2.841931,2.9922 -4.988738,3.96601 -1.59925,0.72544 -3.34334,0.94911 -3.637194,0.46647 z m 9.46806,-0.27476 c -0.776112,-0.2796 -1.490487,-0.51581 -1.5875,-0.5249 -0.09701,-0.009 0.123478,-0.24355 0.489982,-0.52101 0.461333,-0.34926 1.139754,-0.4396 2.204861,-0.29361 1.518829,0.20818 1.53849,0.19745 1.53849,-0.83934 0,-1.53927 -0.882229,-4.21292 -1.895261,-5.74372 -0.763483,-1.1537 -0.820753,-1.42625 -0.416,-1.97978 0.432426,-0.59138 0.556715,-0.50421 1.579057,1.10754 1.761132,2.77646 2.660855,6.86943 1.929183,8.77614 -0.268526,0.69977 -1.929866,0.70785 -3.842812,0.0187 z m -7.416621,-5.75817 c -2.801999,-1.32558 -5.806514,-4.40409 -5.811227,-5.95435 -0.0016,-0.52077 2.175771,-1.67189 3.844006,-2.03225 1.037802,-0.22418 1.168575,-0.17854 0.970139,0.33858 -0.126144,0.32872 -0.229353,0.66194 -0.229353,0.74048 0,0.0785 -0.555625,0.37496 -1.234722,0.6587 -0.679097,0.28375 -1.234722,0.73778 -1.234722,1.00896 0,1.20011 4.251879,4.48184 5.806779,4.48184 0.34425,0 0.543221,0.32303 0.543221,0.88194 0,1.10281 -0.06781,1.09965 -2.654121,-0.1239 z m 11.837562,-2.37226 c 0.0062,-0.5674 0.244296,-1.33979 0.529167,-1.71643 0.284871,-0.37663 0.517947,-0.88025 0.517947,-1.11916 0,-0.73256 -2.387934,-1.29083 -4.535301,-1.06031 -3.968163,0.42599 -4.083079,0.42117 -4.203239,-0.17639 -0.258591,-1.28597 5.838621,-1.83353 8.879462,-0.79741 0.922746,0.31441 1.755854,0.77527 1.851351,1.02413 0.237037,0.61771 -1.015125,2.9773 -2.13433,4.02195 l -0.916276,0.85525 0.01122,-1.03163 z m -11.212073,-3.43414 c 0.198774,-2.83093 1.065639,-5.08361 2.672956,-6.94611 0.889576,-1.0308 1.171974,-1.17095 1.709921,-0.84856 0.738938,0.44284 2.937421,3.21072 2.937421,3.69821 0,0.67781 -1.153601,0.28436 -2.182238,-0.74428 -0.872016,-0.87202 -1.165057,-0.99043 -1.586147,-0.64096 -1.001496,0.83117 -1.9718,3.30227 -2.145279,5.46345 -0.145018,1.80663 -0.297794,2.2181 -0.880103,2.37037 -0.667584,0.17458 -0.695262,0.0509 -0.526531,-2.35212 z"
       inkscape:export-filename="pfc-logo.png"
       inkscape:export-xdpi="96"
       inkscape:export-ydpi="96" /></g></svg>
